<svg width="15" height="15" viewBox="0 0 15 15" fill="none" xmlns="http://www.w3.org/2000/svg">
<g clip-path="url(#clip0_684_2509)">
<path d="M0.156897 12.519L3.48214 9.60938L2.37984 8.70032C1.87359 8.25735 2.23212 7.5 2.94804 7.5H6.69804C7.14184 7.5 7.5 7.81479 7.5 8.20312V11.4844C7.5 12.1108 6.63606 12.4245 6.12984 11.9816L5.08929 11.0156L1.76404 13.9252C1.55484 14.1083 1.21564 14.1083 1.00644 13.9252L0.156897 13.1819C-0.0522991 12.9988 -0.0522991 12.702 0.156897 12.519ZM14.8431 2.48104L11.5179 5.39062L12.6202 6.29968C13.1264 6.74265 12.7679 7.5 12.052 7.5H8.30196C7.85816 7.5 7.5 7.18521 7.5 6.79688V3.51562C7.5 2.8892 8.36394 2.57549 8.87016 3.01843L9.91071 3.98438L13.236 1.07479C13.4452 0.891738 13.7844 0.891738 13.9936 1.07479L14.8431 1.81813C15.0523 2.00118 15.0523 2.29799 14.8431 2.48104Z" fill="black"/>
</g>
<defs>
<clipPath id="clip0_684_2509">
<rect width="15" height="15" fill="white"/>
</clipPath>
</defs>
</svg>
