<svg width="16" height="16" viewBox="0 0 16 16" fill="none" xmlns="http://www.w3.org/2000/svg">
<path d="M10.8096 8.60028L8.40958 14.0003C7.93219 14.0003 7.47435 13.8106 7.13679 13.4731C6.79922 13.1355 6.60958 12.6777 6.60958 12.2003V9.80028H3.21359C3.03964 9.80225 2.86735 9.76638 2.70864 9.69515C2.54994 9.62392 2.40862 9.51904 2.29447 9.38777C2.18033 9.2565 2.09609 9.10199 2.04758 8.93493C1.99908 8.76787 1.98748 8.59226 2.01359 8.42028L2.84159 3.02028C2.88498 2.73413 3.03033 2.47331 3.25084 2.28587C3.47136 2.09843 3.75219 1.99701 4.04159 2.00028H10.8096M10.8096 8.60028V2.00028M10.8096 8.60028H12.4116C12.7511 8.60628 13.0811 8.4874 13.3388 8.26619C13.5965 8.04498 13.764 7.73684 13.8096 7.40028V3.20028C13.764 2.86371 13.5965 2.55558 13.3388 2.33437C13.0811 2.11316 12.7511 1.99427 12.4116 2.00028H10.8096" stroke="#C5C5D1" stroke-width="1.2" stroke-linecap="round" stroke-linejoin="round"/>
</svg>
