<svg width="51" height="61" viewBox="0 0 51 61" fill="none" xmlns="http://www.w3.org/2000/svg">
<circle cx="47.5" cy="12.5" r="3.5" fill="url(#paint0_linear_172_3957)"/>
<mask id="mask0_172_3957" style="mask-type:alpha" maskUnits="userSpaceOnUse" x="0" y="0" width="46" height="61">
<path d="M6.6669 60.8199C5.72358 60.8199 4.90749 60.6122 4.22045 60.315C1.29418 59.0464 -0.20168 55.5648 0.0218808 52.8926C0.121847 50.3061 1.14332 45.6106 1.25964 45.0783L1.27782 45.0054L11.0163 6.64661L11.1454 6.40053C13.421 2.04406 16.0564 -0.110476 18.9718 0.00435932C23.5139 0.18117 26.093 5.91385 26.3729 6.56641L26.3857 6.59739L34.2375 25.7021L40.8353 17.7146C41.6677 16.7066 43.1563 16.5662 44.1614 17.4011C45.1665 18.2359 45.3065 19.7306 44.4741 20.7368L36.2768 30.6601L44.7303 51.2248C45.2283 52.4351 44.6522 53.8204 43.4471 54.3181C42.2403 54.8157 40.8589 54.2397 40.3627 53.0312L32.8653 34.7923L16.2055 54.9597C12.2523 59.4911 9.05336 60.8163 6.66871 60.8163L6.6669 60.8199ZM5.86717 46.1392C5.56545 47.5099 4.80026 51.3287 4.74391 53.1187L4.73483 53.2718C4.65667 54.0847 5.19285 55.5721 6.098 55.9659C7.13219 56.4143 9.39143 55.5721 12.6285 51.8682L30.826 29.838L22.0253 8.42565C21.3801 6.94372 19.857 4.78189 18.7882 4.74179C18.781 4.74179 18.7737 4.74179 18.7664 4.74179C18.1266 4.74179 16.8962 5.69147 15.4603 8.36368L5.86899 46.141L5.86717 46.1392Z" fill="#E7FE4D"/>
</mask>
<g mask="url(#mask0_172_3957)">
<rect x="-9.99219" y="-9.34021" width="61.0372" height="70.1601" fill="url(#paint1_linear_172_3957)"/>
</g>
<defs>
<linearGradient id="paint0_linear_172_3957" x1="51" y1="9" x2="41" y2="19" gradientUnits="userSpaceOnUse">
<stop stop-color="#E7FE4D"/>
<stop offset="0.8" stop-color="#0487FF"/>
</linearGradient>
<linearGradient id="paint1_linear_172_3957" x1="6.14279" y1="6.18759" x2="17.9127" y2="61.3773" gradientUnits="userSpaceOnUse">
<stop stop-color="#0487FF"/>
<stop offset="0.94" stop-color="#E7FE4D"/>
<stop offset="1" stop-color="#372273"/>
</linearGradient>
</defs>
</svg>
