<svg width="215" height="34" viewBox="0 0 215 34" fill="none" xmlns="http://www.w3.org/2000/svg">
<path fill-rule="evenodd" clip-rule="evenodd" d="M10.7553 12.9599C10.2673 12.7122 9.70555 12.5124 9.10624 12.6617C8.71383 12.7594 8.35369 12.9621 8.06214 13.249C7.61745 13.6866 7.47702 14.2797 7.41535 14.8361C7.35427 15.3873 7.35429 16.0983 7.35431 16.9455V17.054C7.35429 17.9012 7.35427 18.6123 7.41535 19.1634C7.47702 19.7198 7.61745 20.313 8.06214 20.7505C8.35369 21.0374 8.71383 21.2401 9.10624 21.3378C9.70555 21.4871 10.2673 21.2873 10.7553 21.0397C11.2385 20.7944 11.8192 20.4098 12.5105 19.9518L12.5976 19.8941C13.1939 19.4991 13.7023 19.1623 14.0737 18.8499C14.4569 18.5275 14.8208 18.1302 14.9565 17.5712C15.0475 17.196 15.0475 16.8035 14.9565 16.4284C14.8208 15.8693 14.4569 15.472 14.0737 15.1496C13.7023 14.8372 13.194 14.5005 12.5976 14.1054L12.5105 14.0477C11.8192 13.5898 11.2386 13.2051 10.7553 12.9599ZM9.24398 14.5169C9.31822 14.4439 9.40962 14.3926 9.50882 14.3679C9.50991 14.3676 9.51607 14.366 9.52981 14.3661C9.54465 14.3663 9.56921 14.3683 9.6065 14.3767C9.68156 14.3937 9.80472 14.4355 9.99858 14.5339C10.3835 14.7292 10.8819 15.0577 11.6292 15.5527C12.2793 15.9834 12.7042 16.2665 12.9911 16.5079C13.2724 16.7446 13.2958 16.8419 13.2985 16.8531C13.3219 16.9494 13.3218 17.0504 13.2985 17.1467C13.2958 17.1579 13.2724 17.2549 12.9911 17.4916C12.7042 17.733 12.2793 18.0161 11.6292 18.4468C10.8819 18.9418 10.3835 19.2703 9.99858 19.4657C9.80472 19.564 9.68156 19.6058 9.6065 19.6228C9.56921 19.6312 9.54465 19.6333 9.52981 19.6334C9.51567 19.6335 9.50964 19.6319 9.50881 19.6317C9.40962 19.607 9.31816 19.5556 9.24392 19.4825C9.24297 19.4816 9.23817 19.4769 9.23054 19.4644C9.22237 19.4511 9.21061 19.4283 9.19718 19.3911C9.17018 19.3162 9.13762 19.1863 9.11307 18.9647C9.06434 18.525 9.063 17.915 9.063 16.9998C9.063 16.0845 9.06434 15.4745 9.11307 15.0348C9.13762 14.8132 9.17018 14.6833 9.19718 14.6084C9.21061 14.5712 9.22237 14.5484 9.23054 14.5351C9.23816 14.5226 9.24302 14.5179 9.24398 14.5169Z" fill="#201F29"/>
<path fill-rule="evenodd" clip-rule="evenodd" d="M11 6C4.92487 6 0 10.9249 0 17C0 23.0751 4.92487 28 11 28C17.0751 28 22 23.0751 22 17C22 10.9249 17.0751 6 11 6ZM1.84904 17C1.84904 11.9461 5.94606 7.84904 11 7.84904C16.0539 7.84904 20.151 11.9461 20.151 17C20.151 22.0539 16.0539 26.151 11 26.151C5.94606 26.151 1.84904 22.0539 1.84904 17Z" fill="#201F29"/>
<path d="M40 13.8L40 21.48" stroke="black" stroke-width="1.5" stroke-linecap="round"/>
<path d="M40 13.8L40 21.48" stroke="black" stroke-width="1.5" stroke-linecap="round"/>
<path d="M40 13.8L40 21.48" stroke="black" stroke-width="1.5" stroke-linecap="round"/>
<path d="M40 13.8L40 21.48" stroke="black" stroke-width="1.5" stroke-linecap="round"/>
<path d="M56.6401 13.8L56.6401 21.48" stroke="black" stroke-width="1.5" stroke-linecap="round"/>
<path d="M56.6401 13.8L56.6401 21.48" stroke="black" stroke-width="1.5" stroke-linecap="round"/>
<path d="M56.6401 13.8L56.6401 21.48" stroke="black" stroke-width="1.5" stroke-linecap="round"/>
<path d="M56.6401 13.8L56.6401 21.48" stroke="black" stroke-width="1.5" stroke-linecap="round"/>
<path d="M43.8398 7.40002L43.8398 26.6" stroke="black" stroke-width="1.5" stroke-linecap="round"/>
<path d="M43.8398 7.40002L43.8398 26.6" stroke="black" stroke-width="1.5" stroke-linecap="round"/>
<path d="M43.8398 7.40002L43.8398 26.6" stroke="black" stroke-width="1.5" stroke-linecap="round"/>
<path d="M43.8398 7.40002L43.8398 26.6" stroke="#474747" stroke-width="1.5" stroke-linecap="round"/>
<path d="M61.7598 7.40002L61.7598 26.6" stroke="black" stroke-width="1.5" stroke-linecap="round"/>
<path d="M61.7598 7.40002L61.7598 26.6" stroke="black" stroke-width="1.5" stroke-linecap="round"/>
<path d="M61.7598 7.40002L61.7598 26.6" stroke="black" stroke-width="1.5" stroke-linecap="round"/>
<path d="M61.7598 7.40002L61.7598 26.6" stroke="black" stroke-width="1.5" stroke-linecap="round"/>
<path d="M52.7998 7.40002L52.7998 26.6" stroke="black" stroke-width="1.5" stroke-linecap="round"/>
<path d="M52.7998 7.40002L52.7998 26.6" stroke="black" stroke-width="1.5" stroke-linecap="round"/>
<path d="M52.7998 7.40002L52.7998 26.6" stroke="black" stroke-width="1.5" stroke-linecap="round"/>
<path d="M52.7998 7.40002L52.7998 26.6" stroke="#474747" stroke-width="1.5" stroke-linecap="round"/>
<path d="M48.96 1L48.96 33" stroke="black" stroke-width="1.5" stroke-linecap="round"/>
<path d="M48.96 1L48.96 33" stroke="black" stroke-width="1.5" stroke-linecap="round"/>
<path d="M48.96 1L48.96 33" stroke="black" stroke-width="1.5" stroke-linecap="round"/>
<path d="M48.96 1L48.96 33" stroke="black" stroke-width="1.5" stroke-linecap="round"/>
<path d="M65.6001 13.8L65.6001 21.48" stroke="black" stroke-width="1.5" stroke-linecap="round"/>
<path d="M65.6001 13.8L65.6001 21.48" stroke="black" stroke-width="1.5" stroke-linecap="round"/>
<path d="M65.6001 13.8L65.6001 21.48" stroke="black" stroke-width="1.5" stroke-linecap="round"/>
<path d="M65.6001 13.8L65.6001 21.48" stroke="black" stroke-width="1.5" stroke-linecap="round"/>
<path d="M82.2402 13.8L82.2402 21.48" stroke="black" stroke-width="1.5" stroke-linecap="round"/>
<path d="M82.2402 13.8L82.2402 21.48" stroke="black" stroke-width="1.5" stroke-linecap="round"/>
<path d="M82.2402 13.8L82.2402 21.48" stroke="black" stroke-width="1.5" stroke-linecap="round"/>
<path d="M82.2402 13.8L82.2402 21.48" stroke="black" stroke-width="1.5" stroke-linecap="round"/>
<path d="M69.4399 7.40002L69.4399 26.6" stroke="black" stroke-width="1.5" stroke-linecap="round"/>
<path d="M69.4399 7.40002L69.4399 26.6" stroke="black" stroke-width="1.5" stroke-linecap="round"/>
<path d="M69.4399 7.40002L69.4399 26.6" stroke="black" stroke-width="1.5" stroke-linecap="round"/>
<path d="M69.4399 7.40002L69.4399 26.6" stroke="#474747" stroke-width="1.5" stroke-linecap="round"/>
<path d="M87.3599 7.40002L87.3599 26.6" stroke="black" stroke-width="1.5" stroke-linecap="round"/>
<path d="M87.3599 7.40002L87.3599 26.6" stroke="black" stroke-width="1.5" stroke-linecap="round"/>
<path d="M87.3599 7.40002L87.3599 26.6" stroke="black" stroke-width="1.5" stroke-linecap="round"/>
<path d="M87.3599 7.40002L87.3599 26.6" stroke="black" stroke-width="1.5" stroke-linecap="round"/>
<path d="M78.3999 7.40002L78.3999 26.6" stroke="black" stroke-width="1.5" stroke-linecap="round"/>
<path d="M78.3999 7.40002L78.3999 26.6" stroke="black" stroke-width="1.5" stroke-linecap="round"/>
<path d="M78.3999 7.40002L78.3999 26.6" stroke="black" stroke-width="1.5" stroke-linecap="round"/>
<path d="M78.3999 7.40002L78.3999 26.6" stroke="#474747" stroke-width="1.5" stroke-linecap="round"/>
<path d="M74.5601 1L74.5601 33" stroke="black" stroke-width="1.5" stroke-linecap="round"/>
<path d="M74.5601 1L74.5601 33" stroke="black" stroke-width="1.5" stroke-linecap="round"/>
<path d="M74.5601 1L74.5601 33" stroke="black" stroke-width="1.5" stroke-linecap="round"/>
<path d="M74.5601 1L74.5601 33" stroke="black" stroke-width="1.5" stroke-linecap="round"/>
<path d="M92.48 13.8L92.48 21.48" stroke="black" stroke-width="1.5" stroke-linecap="round"/>
<path d="M92.48 13.8L92.48 21.48" stroke="black" stroke-width="1.5" stroke-linecap="round"/>
<path d="M92.48 13.8L92.48 21.48" stroke="black" stroke-width="1.5" stroke-linecap="round"/>
<path d="M92.48 13.8L92.48 21.48" stroke="black" stroke-width="1.5" stroke-linecap="round"/>
<path d="M109.12 13.8L109.12 21.48" stroke="black" stroke-width="1.5" stroke-linecap="round"/>
<path d="M109.12 13.8L109.12 21.48" stroke="black" stroke-width="1.5" stroke-linecap="round"/>
<path d="M109.12 13.8L109.12 21.48" stroke="black" stroke-width="1.5" stroke-linecap="round"/>
<path d="M109.12 13.8L109.12 21.48" stroke="black" stroke-width="1.5" stroke-linecap="round"/>
<path d="M96.3198 7.40002L96.3198 26.6" stroke="black" stroke-width="1.5" stroke-linecap="round"/>
<path d="M96.3198 7.40002L96.3198 26.6" stroke="black" stroke-width="1.5" stroke-linecap="round"/>
<path d="M96.3198 7.40002L96.3198 26.6" stroke="black" stroke-width="1.5" stroke-linecap="round"/>
<path d="M96.3198 7.40002L96.3198 26.6" stroke="#474747" stroke-width="1.5" stroke-linecap="round"/>
<path d="M114.24 7.40002L114.24 26.6" stroke="black" stroke-width="1.5" stroke-linecap="round"/>
<path d="M114.24 7.40002L114.24 26.6" stroke="black" stroke-width="1.5" stroke-linecap="round"/>
<path d="M114.24 7.40002L114.24 26.6" stroke="black" stroke-width="1.5" stroke-linecap="round"/>
<path d="M114.24 7.40002L114.24 26.6" stroke="black" stroke-width="1.5" stroke-linecap="round"/>
<path d="M105.28 7.40002L105.28 26.6" stroke="black" stroke-width="1.5" stroke-linecap="round"/>
<path d="M105.28 7.40002L105.28 26.6" stroke="black" stroke-width="1.5" stroke-linecap="round"/>
<path d="M105.28 7.40002L105.28 26.6" stroke="black" stroke-width="1.5" stroke-linecap="round"/>
<path d="M105.28 7.40002L105.28 26.6" stroke="#474747" stroke-width="1.5" stroke-linecap="round"/>
<path d="M101.44 1L101.44 33" stroke="black" stroke-width="1.5" stroke-linecap="round"/>
<path d="M101.44 1L101.44 33" stroke="black" stroke-width="1.5" stroke-linecap="round"/>
<path d="M101.44 1L101.44 33" stroke="black" stroke-width="1.5" stroke-linecap="round"/>
<path d="M101.44 1L101.44 33" stroke="black" stroke-width="1.5" stroke-linecap="round"/>
<path d="M118.08 13.8L118.08 21.48" stroke="black" stroke-width="1.5" stroke-linecap="round"/>
<path d="M118.08 13.8L118.08 21.48" stroke="black" stroke-width="1.5" stroke-linecap="round"/>
<path d="M118.08 13.8L118.08 21.48" stroke="black" stroke-width="1.5" stroke-linecap="round"/>
<path d="M118.08 13.8L118.08 21.48" stroke="black" stroke-width="1.5" stroke-linecap="round"/>
<path d="M134.72 13.8L134.72 21.48" stroke="black" stroke-width="1.5" stroke-linecap="round"/>
<path d="M134.72 13.8L134.72 21.48" stroke="black" stroke-width="1.5" stroke-linecap="round"/>
<path d="M134.72 13.8L134.72 21.48" stroke="black" stroke-width="1.5" stroke-linecap="round"/>
<path d="M134.72 13.8L134.72 21.48" stroke="black" stroke-width="1.5" stroke-linecap="round"/>
<path d="M121.92 7.40002L121.92 26.6" stroke="black" stroke-width="1.5" stroke-linecap="round"/>
<path d="M121.92 7.40002L121.92 26.6" stroke="black" stroke-width="1.5" stroke-linecap="round"/>
<path d="M121.92 7.40002L121.92 26.6" stroke="black" stroke-width="1.5" stroke-linecap="round"/>
<path d="M121.92 7.40002L121.92 26.6" stroke="#474747" stroke-width="1.5" stroke-linecap="round"/>
<path d="M139.84 7.40002L139.84 26.6" stroke="black" stroke-width="1.5" stroke-linecap="round"/>
<path d="M139.84 7.40002L139.84 26.6" stroke="black" stroke-width="1.5" stroke-linecap="round"/>
<path d="M139.84 7.40002L139.84 26.6" stroke="black" stroke-width="1.5" stroke-linecap="round"/>
<path d="M139.84 7.40002L139.84 26.6" stroke="black" stroke-width="1.5" stroke-linecap="round"/>
<path d="M130.88 7.40002L130.88 26.6" stroke="black" stroke-width="1.5" stroke-linecap="round"/>
<path d="M130.88 7.40002L130.88 26.6" stroke="black" stroke-width="1.5" stroke-linecap="round"/>
<path d="M130.88 7.40002L130.88 26.6" stroke="black" stroke-width="1.5" stroke-linecap="round"/>
<path d="M130.88 7.40002L130.88 26.6" stroke="#474747" stroke-width="1.5" stroke-linecap="round"/>
<path d="M127.04 1L127.04 33" stroke="black" stroke-width="1.5" stroke-linecap="round"/>
<path d="M127.04 1L127.04 33" stroke="black" stroke-width="1.5" stroke-linecap="round"/>
<path d="M127.04 1L127.04 33" stroke="black" stroke-width="1.5" stroke-linecap="round"/>
<path d="M127.04 1L127.04 33" stroke="black" stroke-width="1.5" stroke-linecap="round"/>
<path d="M139.84 13.8L139.84 21.48" stroke="black" stroke-width="1.5" stroke-linecap="round"/>
<path d="M139.84 13.8L139.84 21.48" stroke="black" stroke-width="1.5" stroke-linecap="round"/>
<path d="M139.84 13.8L139.84 21.48" stroke="black" stroke-width="1.5" stroke-linecap="round"/>
<path d="M139.84 13.8L139.84 21.48" stroke="black" stroke-width="1.5" stroke-linecap="round"/>
<path d="M156.48 13.8L156.48 21.48" stroke="black" stroke-width="1.5" stroke-linecap="round"/>
<path d="M156.48 13.8L156.48 21.48" stroke="black" stroke-width="1.5" stroke-linecap="round"/>
<path d="M156.48 13.8L156.48 21.48" stroke="black" stroke-width="1.5" stroke-linecap="round"/>
<path d="M156.48 13.8L156.48 21.48" stroke="black" stroke-width="1.5" stroke-linecap="round"/>
<path d="M143.68 7.40002L143.68 26.6" stroke="black" stroke-width="1.5" stroke-linecap="round"/>
<path d="M143.68 7.40002L143.68 26.6" stroke="black" stroke-width="1.5" stroke-linecap="round"/>
<path d="M143.68 7.40002L143.68 26.6" stroke="black" stroke-width="1.5" stroke-linecap="round"/>
<path d="M143.68 7.40002L143.68 26.6" stroke="#474747" stroke-width="1.5" stroke-linecap="round"/>
<path d="M161.6 7.40002L161.6 26.6" stroke="black" stroke-width="1.5" stroke-linecap="round"/>
<path d="M161.6 7.40002L161.6 26.6" stroke="black" stroke-width="1.5" stroke-linecap="round"/>
<path d="M161.6 7.40002L161.6 26.6" stroke="black" stroke-width="1.5" stroke-linecap="round"/>
<path d="M161.6 7.40002L161.6 26.6" stroke="black" stroke-width="1.5" stroke-linecap="round"/>
<path d="M152.64 7.40002L152.64 26.6" stroke="black" stroke-width="1.5" stroke-linecap="round"/>
<path d="M152.64 7.40002L152.64 26.6" stroke="black" stroke-width="1.5" stroke-linecap="round"/>
<path d="M152.64 7.40002L152.64 26.6" stroke="black" stroke-width="1.5" stroke-linecap="round"/>
<path d="M152.64 7.40002L152.64 26.6" stroke="#474747" stroke-width="1.5" stroke-linecap="round"/>
<path d="M148.8 1L148.8 33" stroke="black" stroke-width="1.5" stroke-linecap="round"/>
<path d="M148.8 1L148.8 33" stroke="black" stroke-width="1.5" stroke-linecap="round"/>
<path d="M148.8 1L148.8 33" stroke="black" stroke-width="1.5" stroke-linecap="round"/>
<path d="M148.8 1L148.8 33" stroke="black" stroke-width="1.5" stroke-linecap="round"/>
<path d="M166.72 13.8L166.72 21.48" stroke="black" stroke-width="1.5" stroke-linecap="round"/>
<path d="M166.72 13.8L166.72 21.48" stroke="black" stroke-width="1.5" stroke-linecap="round"/>
<path d="M166.72 13.8L166.72 21.48" stroke="black" stroke-width="1.5" stroke-linecap="round"/>
<path d="M166.72 13.8L166.72 21.48" stroke="black" stroke-width="1.5" stroke-linecap="round"/>
<path d="M183.36 13.8L183.36 21.48" stroke="black" stroke-width="1.5" stroke-linecap="round"/>
<path d="M183.36 13.8L183.36 21.48" stroke="black" stroke-width="1.5" stroke-linecap="round"/>
<path d="M183.36 13.8L183.36 21.48" stroke="black" stroke-width="1.5" stroke-linecap="round"/>
<path d="M183.36 13.8L183.36 21.48" stroke="black" stroke-width="1.5" stroke-linecap="round"/>
<path d="M170.56 7.40002L170.56 26.6" stroke="black" stroke-width="1.5" stroke-linecap="round"/>
<path d="M170.56 7.40002L170.56 26.6" stroke="black" stroke-width="1.5" stroke-linecap="round"/>
<path d="M170.56 7.40002L170.56 26.6" stroke="black" stroke-width="1.5" stroke-linecap="round"/>
<path d="M170.56 7.40002L170.56 26.6" stroke="#474747" stroke-width="1.5" stroke-linecap="round"/>
<path d="M188.48 7.40002L188.48 26.6" stroke="black" stroke-width="1.5" stroke-linecap="round"/>
<path d="M188.48 7.40002L188.48 26.6" stroke="black" stroke-width="1.5" stroke-linecap="round"/>
<path d="M188.48 7.40002L188.48 26.6" stroke="black" stroke-width="1.5" stroke-linecap="round"/>
<path d="M188.48 7.40002L188.48 26.6" stroke="black" stroke-width="1.5" stroke-linecap="round"/>
<path d="M179.52 7.40002L179.52 26.6" stroke="black" stroke-width="1.5" stroke-linecap="round"/>
<path d="M179.52 7.40002L179.52 26.6" stroke="black" stroke-width="1.5" stroke-linecap="round"/>
<path d="M179.52 7.40002L179.52 26.6" stroke="black" stroke-width="1.5" stroke-linecap="round"/>
<path d="M179.52 7.40002L179.52 26.6" stroke="#474747" stroke-width="1.5" stroke-linecap="round"/>
<path d="M175.68 1L175.68 33" stroke="black" stroke-width="1.5" stroke-linecap="round"/>
<path d="M175.68 1L175.68 33" stroke="black" stroke-width="1.5" stroke-linecap="round"/>
<path d="M175.68 1L175.68 33" stroke="black" stroke-width="1.5" stroke-linecap="round"/>
<path d="M175.68 1L175.68 33" stroke="black" stroke-width="1.5" stroke-linecap="round"/>
<path d="M192.32 13.8L192.32 21.48" stroke="black" stroke-width="1.5" stroke-linecap="round"/>
<path d="M192.32 13.8L192.32 21.48" stroke="black" stroke-width="1.5" stroke-linecap="round"/>
<path d="M192.32 13.8L192.32 21.48" stroke="black" stroke-width="1.5" stroke-linecap="round"/>
<path d="M192.32 13.8L192.32 21.48" stroke="black" stroke-width="1.5" stroke-linecap="round"/>
<path d="M208.96 13.8L208.96 21.48" stroke="black" stroke-width="1.5" stroke-linecap="round"/>
<path d="M208.96 13.8L208.96 21.48" stroke="black" stroke-width="1.5" stroke-linecap="round"/>
<path d="M208.96 13.8L208.96 21.48" stroke="black" stroke-width="1.5" stroke-linecap="round"/>
<path d="M208.96 13.8L208.96 21.48" stroke="black" stroke-width="1.5" stroke-linecap="round"/>
<path d="M196.16 7.40002L196.16 26.6" stroke="black" stroke-width="1.5" stroke-linecap="round"/>
<path d="M196.16 7.40002L196.16 26.6" stroke="black" stroke-width="1.5" stroke-linecap="round"/>
<path d="M196.16 7.40002L196.16 26.6" stroke="black" stroke-width="1.5" stroke-linecap="round"/>
<path d="M196.16 7.40002L196.16 26.6" stroke="#474747" stroke-width="1.5" stroke-linecap="round"/>
<path d="M214.08 7.40002L214.08 26.6" stroke="black" stroke-width="1.5" stroke-linecap="round"/>
<path d="M214.08 7.40002L214.08 26.6" stroke="black" stroke-width="1.5" stroke-linecap="round"/>
<path d="M214.08 7.40002L214.08 26.6" stroke="black" stroke-width="1.5" stroke-linecap="round"/>
<path d="M214.08 7.40002L214.08 26.6" stroke="black" stroke-width="1.5" stroke-linecap="round"/>
<path d="M205.12 7.40002L205.12 26.6" stroke="black" stroke-width="1.5" stroke-linecap="round"/>
<path d="M205.12 7.40002L205.12 26.6" stroke="black" stroke-width="1.5" stroke-linecap="round"/>
<path d="M205.12 7.40002L205.12 26.6" stroke="black" stroke-width="1.5" stroke-linecap="round"/>
<path d="M205.12 7.40002L205.12 26.6" stroke="#474747" stroke-width="1.5" stroke-linecap="round"/>
<path d="M201.28 1L201.28 33" stroke="black" stroke-width="1.5" stroke-linecap="round"/>
<path d="M201.28 1L201.28 33" stroke="black" stroke-width="1.5" stroke-linecap="round"/>
<path d="M201.28 1L201.28 33" stroke="black" stroke-width="1.5" stroke-linecap="round"/>
<path d="M201.28 1L201.28 33" stroke="black" stroke-width="1.5" stroke-linecap="round"/>
</svg>
