<svg width="15" height="15" viewBox="0 0 15 15" fill="none" xmlns="http://www.w3.org/2000/svg">
<path d="M5.33333 3.88889H2.15556C1.75107 3.88889 1.54883 3.88889 1.39434 3.96761C1.25845 4.03685 1.14796 4.14733 1.07872 4.28323C1 4.43772 1 4.63996 1 5.04444V12.8444C1 13.2489 1 13.4512 1.07872 13.6057C1.14796 13.7416 1.25845 13.852 1.39434 13.9213C1.54883 14 1.75107 14 2.15556 14H5.33333M5.33333 14H9.66667M5.33333 14L5.33333 2.15556C5.33333 1.75107 5.33333 1.54883 5.41205 1.39434C5.48129 1.25845 5.59178 1.14796 5.72767 1.07872C5.88217 1 6.08441 1 6.48889 1L8.51111 1C8.91559 1 9.11783 1 9.27233 1.07872C9.40822 1.14796 9.51871 1.25845 9.58795 1.39434C9.66667 1.54883 9.66667 1.75107 9.66667 2.15556V14M9.66667 6.77778H12.8444C13.2489 6.77778 13.4512 6.77778 13.6057 6.8565C13.7416 6.92574 13.852 7.03622 13.9213 7.17212C14 7.32661 14 7.52885 14 7.93333V12.8444C14 13.2489 14 13.4512 13.9213 13.6057C13.852 13.7416 13.7416 13.852 13.6057 13.9213C13.4512 14 13.2489 14 12.8444 14H9.66667" stroke="#0487FF" stroke-linecap="round" stroke-linejoin="round"/>
</svg>
