<svg width="17" height="17" viewBox="0 0 17 17" fill="none" xmlns="http://www.w3.org/2000/svg">
<path d="M8.50033 10.625C9.67393 10.625 10.6253 9.67363 10.6253 8.50002C10.6253 7.32642 9.67393 6.37502 8.50033 6.37502C7.32672 6.37502 6.37533 7.32642 6.37533 8.50002C6.37533 9.67363 7.32672 10.625 8.50033 10.625Z" stroke="#0487FF" stroke-linecap="round" stroke-linejoin="round"/>
<path d="M13.2655 10.4318C13.1798 10.6261 13.1542 10.8415 13.1921 11.0504C13.2299 11.2593 13.3295 11.452 13.478 11.6038L13.5166 11.6424C13.6364 11.7621 13.7313 11.9041 13.7962 12.0604C13.861 12.2168 13.8943 12.3844 13.8943 12.5536C13.8943 12.7229 13.861 12.8905 13.7962 13.0468C13.7313 13.2031 13.6364 13.3452 13.5166 13.4648C13.397 13.5845 13.255 13.6795 13.0986 13.7443C12.9423 13.8092 12.7747 13.8425 12.6054 13.8425C12.4362 13.8425 12.2686 13.8092 12.1123 13.7443C11.9559 13.6795 11.8139 13.5845 11.6943 13.4648L11.6556 13.4262C11.5039 13.2777 11.3111 13.1781 11.1022 13.1402C10.8933 13.1024 10.6779 13.1279 10.4837 13.2137C10.2932 13.2953 10.1308 13.4308 10.0164 13.6036C9.90195 13.7763 9.84055 13.9788 9.83972 14.186V14.2955C9.83972 14.637 9.70403 14.9646 9.46251 15.2061C9.22098 15.4477 8.89341 15.5834 8.55184 15.5834C8.21027 15.5834 7.8827 15.4477 7.64117 15.2061C7.39965 14.9646 7.26396 14.637 7.26396 14.2955V14.2375C7.25898 14.0244 7.18999 13.8177 7.06596 13.6443C6.94193 13.4709 6.7686 13.3388 6.56851 13.2652C6.37429 13.1795 6.15884 13.1539 5.94995 13.1918C5.74106 13.2296 5.5483 13.3292 5.39654 13.4777L5.3579 13.5163C5.23829 13.6361 5.09625 13.731 4.93991 13.7959C4.78356 13.8607 4.61597 13.894 4.44673 13.894C4.27748 13.894 4.10989 13.8607 3.95355 13.7959C3.7972 13.731 3.65516 13.6361 3.53555 13.5163C3.41581 13.3967 3.32082 13.2547 3.25601 13.0983C3.19119 12.942 3.15784 12.7744 3.15784 12.6051C3.15784 12.4359 3.19119 12.2683 3.25601 12.112C3.32082 11.9556 3.41581 11.8136 3.53555 11.694L3.57419 11.6553C3.72264 11.5036 3.82223 11.3108 3.8601 11.1019C3.89798 10.893 3.87241 10.6776 3.78669 10.4834C3.70506 10.2929 3.56952 10.1305 3.39676 10.0161C3.224 9.90164 3.02155 9.84024 2.81434 9.83941H2.70487C2.3633 9.83941 2.03573 9.70373 1.7942 9.4622C1.55268 9.22068 1.41699 8.8931 1.41699 8.55154C1.41699 8.20997 1.55268 7.88239 1.7942 7.64087C2.03573 7.39934 2.3633 7.26366 2.70487 7.26366H2.76283C2.97597 7.25867 3.18268 7.18968 3.35609 7.06565C3.5295 6.94162 3.66158 6.7683 3.73517 6.5682C3.82089 6.37398 3.84646 6.15853 3.80859 5.94964C3.77071 5.74075 3.67113 5.548 3.52267 5.39623L3.48404 5.3576C3.3643 5.23799 3.2693 5.09595 3.20449 4.9396C3.13968 4.78326 3.10632 4.61567 3.10632 4.44642C3.10632 4.27717 3.13968 4.10959 3.20449 3.95324C3.2693 3.7969 3.3643 3.65486 3.48404 3.53525C3.60365 3.41551 3.74569 3.32051 3.90203 3.2557C4.05838 3.19089 4.22596 3.15753 4.39521 3.15753C4.56446 3.15753 4.73205 3.19089 4.88839 3.2557C5.04474 3.32051 5.18678 3.41551 5.30639 3.53525L5.34502 3.57388C5.49679 3.72234 5.68954 3.82192 5.89843 3.8598C6.10732 3.89767 6.32277 3.8721 6.51699 3.78638H6.56851C6.75897 3.70476 6.9214 3.56922 7.03581 3.39646C7.15022 3.22369 7.21162 3.02125 7.21245 2.81404V2.70457C7.21245 2.363 7.34813 2.03542 7.58966 1.7939C7.83118 1.55237 8.15876 1.41669 8.50033 1.41669C8.84189 1.41669 9.16947 1.55237 9.41099 1.7939C9.65252 2.03542 9.7882 2.363 9.7882 2.70457V2.76252C9.78903 2.96973 9.85043 3.17218 9.96484 3.34494C10.0793 3.5177 10.2417 3.65324 10.4321 3.73487C10.6264 3.82059 10.8418 3.84616 11.0507 3.80828C11.2596 3.77041 11.4524 3.67082 11.6041 3.52237L11.6428 3.48373C11.7624 3.36399 11.9044 3.269 12.0607 3.20419C12.2171 3.13937 12.3847 3.10601 12.5539 3.10601C12.7232 3.10601 12.8908 3.13937 13.0471 3.20419C13.2035 3.269 13.3455 3.36399 13.4651 3.48373C13.5848 3.60334 13.6798 3.74538 13.7446 3.90173C13.8095 4.05807 13.8428 4.22566 13.8428 4.39491C13.8428 4.56415 13.8095 4.73174 13.7446 4.88809C13.6798 5.04443 13.5848 5.18647 13.4651 5.30608L13.4265 5.34472C13.278 5.49648 13.1784 5.68924 13.1406 5.89813C13.1027 6.10702 13.1282 6.32247 13.214 6.51669V6.5682C13.2956 6.75866 13.4311 6.92109 13.6039 7.0355C13.7767 7.14992 13.9791 7.21132 14.1863 7.21214H14.2958C14.6373 7.21214 14.9649 7.34783 15.2064 7.58935C15.448 7.83088 15.5837 8.15845 15.5837 8.50002C15.5837 8.84159 15.448 9.16916 15.2064 9.41069C14.9649 9.65221 14.6373 9.7879 14.2958 9.7879H14.2378C14.0306 9.78873 13.8282 9.85012 13.6554 9.96454C13.4826 10.0789 13.3471 10.2414 13.2655 10.4318Z" stroke="#0487FF" stroke-linecap="round" stroke-linejoin="round"/>
</svg>
