<svg width="16" height="16" viewBox="0 0 16 16" fill="none" xmlns="http://www.w3.org/2000/svg">
<path d="M5 7.40003L7.39999 2.00003C7.87738 2.00003 8.33522 2.18967 8.67278 2.52724C9.01035 2.8648 9.19999 3.32264 9.19999 3.80003V6.20003H12.596C12.7699 6.19806 12.9422 6.23393 13.1009 6.30516C13.2596 6.37639 13.401 6.48127 13.5151 6.61254C13.6292 6.74381 13.7135 6.89832 13.762 7.06538C13.8105 7.23244 13.8221 7.40804 13.796 7.58003L12.968 12.98C12.9246 13.2662 12.7792 13.527 12.5587 13.7144C12.3382 13.9019 12.0574 14.0033 11.768 14H5M5 7.40003V14M5 7.40003H3.2C2.88174 7.40003 2.57651 7.52646 2.35147 7.7515C2.12643 7.97654 2 8.28177 2 8.60003V12.8C2 13.1183 2.12643 13.4235 2.35147 13.6486C2.57651 13.8736 2.88174 14 3.2 14H5" stroke="#C5C5D1" stroke-width="1.2" stroke-linecap="round" stroke-linejoin="round"/>
</svg>
