<svg width="25" height="26" viewBox="0 0 25 26" fill="none" xmlns="http://www.w3.org/2000/svg">
<path fill-rule="evenodd" clip-rule="evenodd" d="M8.29799 0.833314H16.7014C17.7448 0.833297 18.606 0.833283 19.3076 0.891725C20.0362 0.952424 20.706 1.0827 21.3352 1.40954C22.3108 1.9164 23.1041 2.72518 23.6012 3.71995C23.9218 4.36142 24.0495 5.04435 24.1091 5.78727C24.1664 6.50256 24.1664 7.38063 24.1663 8.44455V13.0468C24.1664 14.1107 24.1664 14.9888 24.1091 15.7041C24.0495 16.447 23.9218 17.1299 23.6012 17.7714C23.1041 18.7662 22.3108 19.575 21.3352 20.0818C20.706 20.4087 20.0362 20.5389 19.3076 20.5996C18.606 20.6581 17.7448 20.6581 16.7013 20.658H16.4293L12.4997 25.3333L8.57007 20.658H8.29802C7.25453 20.6581 6.39331 20.6581 5.69175 20.5996C4.96311 20.5389 4.29331 20.4087 3.66417 20.0818C2.68851 19.575 1.89528 18.7662 1.39816 17.7714C1.0776 17.1299 0.94983 16.447 0.890297 15.7041C0.832978 14.9888 0.832992 14.1107 0.833008 13.0468V8.44458C0.832992 7.38065 0.832978 6.50257 0.890297 5.78727C0.94983 5.04435 1.0776 4.36142 1.39816 3.71995C1.89528 2.72518 2.68851 1.9164 3.66417 1.40954C4.29331 1.0827 4.96311 0.952424 5.69175 0.891725C6.3933 0.833283 7.25451 0.833297 8.29799 0.833314ZM5.90287 3.52634C5.33456 3.57369 5.04392 3.6595 4.84118 3.76482C4.35335 4.01825 3.95674 4.42264 3.70818 4.92003C3.60488 5.12674 3.52071 5.42307 3.47428 6.00253C3.42661 6.59741 3.4256 7.36703 3.4256 8.49917V12.9922C3.4256 14.1243 3.42661 14.894 3.47428 15.4888C3.52071 16.0683 3.60488 16.3646 3.70818 16.5713C3.95674 17.0687 4.35335 17.4731 4.84118 17.7265C5.04392 17.8319 5.33456 17.9177 5.90287 17.965C6.48632 18.0136 7.24115 18.0147 8.35153 18.0147H9.76264L12.4997 21.2711L15.2367 18.0147H16.6478C17.7582 18.0147 18.513 18.0136 19.0965 17.965C19.6648 17.9177 19.9554 17.8319 20.1582 17.7265C20.646 17.4731 21.0426 17.0687 21.2912 16.5713C21.3945 16.3646 21.4786 16.0683 21.5251 15.4888C21.5727 14.894 21.5737 14.1243 21.5737 12.9922V8.49917C21.5737 7.36703 21.5727 6.59741 21.5251 6.00253C21.4786 5.42307 21.3945 5.12674 21.2912 4.92003C21.0426 4.42264 20.646 4.01826 20.1582 3.76482C19.9554 3.6595 19.6648 3.57369 19.0965 3.52634C18.513 3.47774 17.7582 3.47671 16.6478 3.47671H8.35153C7.24115 3.47671 6.48632 3.47774 5.90287 3.52634ZM8.61081 5.57263L13.0366 10.0852L8.61081 14.5978L6.77757 12.7286L9.37016 10.0852L6.77757 7.4418L8.61081 5.57263ZM12.4997 12.7286H17.6849V15.372H12.4997V12.7286Z" fill="#07090D" stroke="white" stroke-width="0.5" stroke-linecap="square"/>
</svg>
