<svg width="22" height="22" viewBox="0 0 22 22" fill="none" xmlns="http://www.w3.org/2000/svg">
<path fill-rule="evenodd" clip-rule="evenodd" d="M6.51857 0C7.02483 0 7.43524 0.410404 7.43524 0.916663V1.14655C8.28952 1.12045 9.26694 1.12046 10.3898 1.12046H11.6102C12.7331 1.12046 13.7105 1.12045 14.5648 1.14655V0.916663C14.5648 0.410404 14.9752 0 15.4814 0C15.9877 0 16.3981 0.410404 16.3981 0.916663V1.27355C17.4291 1.40342 18.2988 1.65119 19.0703 2.15058C19.8304 2.64265 20.4778 3.29004 20.9699 4.05018C21.5234 4.90522 21.7678 5.88093 21.8851 7.06322C22 8.22039 22 9.66998 22 11.5103V11.6102C22 13.4505 22 14.9001 21.8851 16.0572C21.7678 17.2395 21.5234 18.2152 20.9699 19.0703C20.4778 19.8304 19.8304 20.4778 19.0703 20.9699C18.2152 21.5234 17.2395 21.7678 16.0572 21.8851C14.9001 22 13.4505 22 11.6102 22H10.3898C8.54949 22 7.09994 22 5.94279 21.8851C4.76049 21.7678 3.78477 21.5234 2.92973 20.9699C2.16958 20.4778 1.5222 19.8304 1.03012 19.0703C0.476617 18.2152 0.23222 17.2395 0.114854 16.0572C-1.64186e-05 14.9001 -9.0632e-06 13.4505 1.64969e-07 11.6102V11.5103C-9.0632e-06 9.66995 -1.64186e-05 8.22038 0.114854 7.06322C0.23222 5.88093 0.476617 4.90522 1.03012 4.05018C1.5222 3.29004 2.16958 2.64265 2.92973 2.15058C3.70119 1.65119 4.57088 1.40342 5.6019 1.27355V0.916663C5.6019 0.410404 6.01231 0 6.51857 0ZM14.5648 2.98064V3.15739C14.5648 3.66365 14.9752 4.07406 15.4814 4.07406C15.9877 4.07406 16.3981 3.66365 16.3981 3.15739V3.12429C17.1445 3.23771 17.656 3.419 18.074 3.68959C18.617 4.04107 19.0794 4.50349 19.4309 5.04644C19.683 5.43586 19.8575 5.90646 19.9719 6.57252C19.6067 6.53274 19.1623 6.48901 18.6386 6.44537C16.9328 6.30322 14.3866 6.16211 11 6.16211C7.61339 6.16211 5.06716 6.30322 3.36137 6.44537C2.83771 6.489 2.39327 6.53274 2.02805 6.57252C2.14246 5.90646 2.31705 5.43586 2.56913 5.04644C2.92062 4.50349 3.38304 4.04107 3.926 3.68959C4.34399 3.419 4.85552 3.23771 5.6019 3.12429V3.15739C5.6019 3.66365 6.01231 4.07406 6.51857 4.07406C7.02483 4.07406 7.43524 3.66365 7.43524 3.15739V2.98064C8.26175 2.95421 9.24334 2.95379 10.4398 2.95379H11.5602C12.7567 2.95379 13.7383 2.95421 14.5648 2.98064ZM20.1358 8.43622C19.7362 8.38884 19.1864 8.33069 18.4864 8.27236C16.831 8.13442 14.3356 7.99543 11 7.99543C7.66438 7.99543 5.16894 8.13442 3.51362 8.27236C2.81362 8.33069 2.26383 8.38884 1.86423 8.43622C1.83379 9.28725 1.83333 10.3056 1.83333 11.5602C1.83333 13.4615 1.83439 14.8201 1.93922 15.8761C2.04259 16.9175 2.23968 17.5651 2.56913 18.074C2.92062 18.617 3.38304 19.0794 3.926 19.4309C4.43493 19.7603 5.08253 19.9574 6.12389 20.0608C7.17993 20.1656 8.53857 20.1667 10.4398 20.1667H11.5602C13.4614 20.1667 14.8201 20.1656 15.8761 20.0608C16.9175 19.9574 17.5651 19.7603 18.074 19.4309C18.617 19.0794 19.0794 18.617 19.4309 18.074C19.7603 17.5651 19.9574 16.9175 20.0608 15.8761C20.1656 14.8201 20.1667 13.4615 20.1667 11.5602C20.1667 10.3056 20.1662 9.28725 20.1358 8.43622Z" fill="#0F1E46"/>
</svg>
