<svg width="22" height="22" viewBox="0 0 22 22" fill="none" xmlns="http://www.w3.org/2000/svg">
<path d="M19.25 16.5L18.3332 17.5029C17.847 18.0346 17.1876 18.3333 16.5001 18.3333C15.8126 18.3333 15.1532 18.0346 14.667 17.5029C14.1801 16.9722 13.5208 16.6742 12.8335 16.6742C12.1462 16.6742 11.4869 16.9722 11 17.5029M2.75 18.3333H4.285C4.73341 18.3333 4.95762 18.3333 5.16862 18.2827C5.35568 18.2378 5.53451 18.1637 5.69855 18.0632C5.88356 17.9498 6.0421 17.7913 6.35918 17.4742L17.875 5.95834C18.6344 5.19895 18.6344 3.96773 17.875 3.20834C17.1156 2.44895 15.8844 2.44895 15.125 3.20834L3.60916 14.7242C3.29208 15.0413 3.13354 15.1998 3.02016 15.3848C2.91964 15.5488 2.84557 15.7277 2.80066 15.9147C2.75 16.1257 2.75 16.3499 2.75 16.7984V18.3333Z" stroke="white" stroke-linecap="round" stroke-linejoin="round"/>
</svg>
