<svg width="17" height="20" viewBox="0 0 17 20" fill="none" xmlns="http://www.w3.org/2000/svg">
<path fill-rule="evenodd" clip-rule="evenodd" d="M1 2.35C1 1.60441 1.59256 1 2.32353 1H14.6765C15.4074 1 16 1.60442 16 2.35V18.55C16 18.6976 15.929 18.8358 15.8101 18.9199C15.6912 19.0039 15.5394 19.0232 15.4039 18.9713L8.5 16.3306L1.59608 18.9713C1.4606 19.0232 1.30881 19.0039 1.18988 18.9199C1.07095 18.8358 1 18.6976 1 18.55V2.35ZM2.32353 1.9C2.07987 1.9 1.88235 2.10147 1.88235 2.35V17.9006L8.34509 15.4287C8.44497 15.3904 8.55503 15.3904 8.65491 15.4287L15.1176 17.9006V2.35C15.1176 2.10147 14.9201 1.9 14.6765 1.9H2.32353Z" fill="#F2F2F2" stroke="#0F1E46" stroke-linecap="round" stroke-linejoin="round"/>
</svg>
