<svg width="24" height="24" viewBox="0 0 24 24" fill="none" xmlns="http://www.w3.org/2000/svg">
<circle cx="12" cy="12" r="12" fill="#0F1E46"/>
<circle cx="17.8401" cy="7.40619" r="0.897732" fill="url(#paint0_linear_612_2560)"/>
<mask id="mask0_612_2560" style="mask-type:alpha" maskUnits="userSpaceOnUse" x="5" y="4" width="12" height="16">
<path d="M7.10993 19.8C6.86797 19.8 6.65865 19.7467 6.48243 19.6705C5.73185 19.3451 5.34817 18.4521 5.40551 17.7667C5.43116 17.1033 5.69316 15.8989 5.72299 15.7624L5.72766 15.7437L8.22553 5.90483L8.25863 5.84172C8.84231 4.7243 9.51829 4.17168 10.2661 4.20113C11.4311 4.24648 12.0926 5.71688 12.1644 5.88426L12.1677 5.89221L14.1817 10.7925L15.8739 8.74371C16.0875 8.48517 16.4693 8.44917 16.7271 8.6633C16.9849 8.87743 17.0208 9.26081 16.8073 9.51889L14.7047 12.0642L16.873 17.3389C17.0007 17.6493 16.853 18.0047 16.5439 18.1323C16.2343 18.2599 15.88 18.1122 15.7527 17.8022L13.8297 13.1241L9.55652 18.2969C8.54255 19.4592 7.72204 19.7991 7.11039 19.7991L7.10993 19.8ZM6.9048 16.0345C6.82741 16.3861 6.63114 17.3656 6.61669 17.8247L6.61436 17.8639C6.59431 18.0725 6.73184 18.454 6.96401 18.555C7.22927 18.67 7.80875 18.454 8.63905 17.5039L13.3066 11.8533L11.0493 6.36115C10.8838 5.98104 10.4931 5.42654 10.219 5.41626C10.2171 5.41626 10.2153 5.41626 10.2134 5.41626C10.0493 5.41626 9.73368 5.65984 9.36538 6.34525L6.90527 16.0349L6.9048 16.0345Z" fill="#E7FE4D"/>
</mask>
<g mask="url(#mask0_612_2560)">
<rect x="2.8374" y="1.80426" width="15.6557" height="17.9957" fill="url(#paint1_linear_612_2560)"/>
</g>
<defs>
<linearGradient id="paint0_linear_612_2560" x1="17.9684" y1="6.8932" x2="16.1729" y2="9.0734" gradientUnits="userSpaceOnUse">
<stop stop-color="#E7FE4D"/>
<stop offset="0.975" stop-color="#0487FF"/>
</linearGradient>
<linearGradient id="paint1_linear_612_2560" x1="6.97594" y1="5.78706" x2="9.99486" y2="19.9429" gradientUnits="userSpaceOnUse">
<stop stop-color="#0487FF"/>
<stop offset="0.94" stop-color="#E7FE4D"/>
<stop offset="1" stop-color="#372273"/>
</linearGradient>
</defs>
</svg>
