<svg width="16" height="16" viewBox="0 0 16 16" fill="none" xmlns="http://www.w3.org/2000/svg">
<g clip-path="url(#clip0_41_1703)">
<path fill-rule="evenodd" clip-rule="evenodd" d="M16 14.4761L14.4762 15.9999L10.3401 11.8639C9.2517 12.6258 7.94558 13.0612 6.53061 13.0612C2.93878 13.0612 0 10.1224 0 6.53055C0 2.93871 2.93878 -6.10352e-05 6.53061 -6.10352e-05C10.1224 -6.10352e-05 13.0612 2.93871 13.0612 6.53055C13.0612 7.94552 12.6258 9.25164 11.8639 10.3401L16 14.4761ZM6.53061 2.17681C4.13605 2.17681 2.17687 4.13599 2.17687 6.53055C2.17687 8.92511 4.13605 10.8843 6.53061 10.8843C8.92517 10.8843 10.8844 8.92511 10.8844 6.53055C10.8844 4.13599 8.92517 2.17681 6.53061 2.17681Z" fill="#434F8F" stroke="#D5DAE7"/>
</g>
<defs>
<clipPath id="clip0_41_1703">
<rect width="16" height="16" fill="white"/>
</clipPath>
</defs>
</svg>
