<svg width="33" height="33" viewBox="0 0 33 33" fill="none" xmlns="http://www.w3.org/2000/svg">
<circle cx="16.5" cy="16.5" r="16.5" fill="#F1EEFF"/>
<path d="M26.0488 13.2623C26.1435 13.1114 26.1945 12.9392 26.1961 12.765C26.1977 12.5908 26.1499 12.4214 26.0581 12.2758C25.9662 12.1303 25.8339 12.0143 25.6759 11.9407C25.518 11.8672 25.3406 11.8392 25.1636 11.8596L10.2371 13.6007C10.052 13.6222 9.87517 13.696 9.72827 13.813C9.58136 13.93 9.47069 14.0851 9.40976 14.2595C9.34882 14.4339 9.34026 14.62 9.38511 14.7952C9.42996 14.9703 9.52628 15.1268 9.66233 15.2457L13.3075 18.43C13.4599 18.563 13.6543 18.642 13.8611 18.655C14.068 18.6679 14.2761 18.6142 14.454 18.5018L18.196 16.1403C18.4132 16.0033 18.6736 15.9546 18.9199 16.0048C19.1663 16.055 19.3785 16.2001 19.5098 16.4082C19.6411 16.6163 19.6807 16.8702 19.6201 17.1143C19.5594 17.3583 19.4033 17.5723 19.1862 17.7093L15.4441 20.0708C15.2662 20.183 15.128 20.3477 15.0507 20.54C14.9734 20.7323 14.961 20.9417 15.0155 21.1365L16.3219 25.7968C16.3705 25.9708 16.4702 26.1251 16.6089 26.2411C16.7475 26.357 16.9191 26.4295 17.1027 26.4497C17.2863 26.4699 17.474 26.4369 17.6429 26.3548C17.8118 26.2727 17.9545 26.145 18.0538 25.9873L26.0493 13.2631L26.0488 13.2623Z" fill="url(#paint0_linear_156_2698)"/>
<defs>
<linearGradient id="paint0_linear_156_2698" x1="22.0977" y1="6" x2="11.0977" y2="18.5" gradientUnits="userSpaceOnUse">
<stop stop-color="#0487FF"/>
<stop offset="1" stop-color="#254AAC"/>
</linearGradient>
</defs>
</svg>
